<?xml version="1.0" encoding="UTF-8"?>
<svg xmlns="http://www.w3.org/2000/svg" xmlns:xlink="http://www.w3.org/1999/xlink" width="48" height="48" viewBox="0 0 24 24" version="1.1">
    <!-- Generator: Sketch 63.1 (92452) - https://sketch.com -->
    <title>Public/ic_public_fail_filled</title>
    <desc>Created with Sketch.</desc>
    <defs>
        <path d="M12,23 C18.0751322,23 23,18.0751322 23,12 C23,5.92486775 18.0751322,1 12,1 C5.92486775,1 1,5.92486775 1,12 C1,18.0751322 5.92486775,23 12,23 Z M12,15.5 C12.6903125,15.5 13.25,16.0596875 13.25,16.75 C13.25,17.4403125 12.6903125,18 12,18 C11.3096875,18 10.75,17.4403125 10.75,16.75 C10.75,16.0596875 11.3096875,15.5 12,15.5 Z M12,6 C12.6414582,6 13.1614628,6.5200046 13.1614628,7.16146279 C13.1614628,7.18988207 13.1604197,7.21829177 13.1583357,7.24663453 L12.6708322,13.8766827 C12.6449936,14.2280877 12.3523536,14.5 12,14.5 C11.6476464,14.5 11.3550064,14.2280877 11.3291678,13.8766827 L10.8416643,7.24663453 C10.7946252,6.60690339 11.2750971,6.05016615 11.9148283,6.00312709 C11.943171,6.00104307 11.9715807,6 12,6 Z" id="_path-1"/>
    </defs>
    <g id="_Public/ic_public_fail_filled" stroke="none" stroke-width="1" fill="none" fill-rule="evenodd">
        <mask id="_mask-2" fill="white">
            <use xlink:href="#_path-1"/>
        </mask>
        <use id="_Combined-Shape" fill="#000000" xlink:href="#_path-1"/>
    </g>
</svg>