<?xml version="1.0" encoding="UTF-8"?>
<svg xmlns="http://www.w3.org/2000/svg" xmlns:xlink="http://www.w3.org/1999/xlink" width="48" height="48" viewBox="0 0 24 24" version="1.1">
    <title>Public/ic_public_detail_filled</title>
    <defs>
        <path d="M12,23 C18.0751322,23 23,18.0751322 23,12 C23,5.92486775 18.0751322,1 12,1 C5.92486775,1 1,5.92486775 1,12 C1,18.0751322 5.92486775,23 12,23 Z M12,6 C11.3096875,6 10.75,6.5596875 10.75,7.25 C10.75,7.9403125 11.3096875,8.5 12,8.5 C12.6903125,8.5 13.25,7.9403125 13.25,7.25 C13.25,6.5596875 12.6903125,6 12,6 M12.75,17.25 C12.75,17.6642136 12.4142136,18 12,18 C11.5857864,18 11.25,17.6642136 11.25,17.25 L11.25,10.5 C11.25,10.0857864 11.5857864,9.75 12,9.75 C12.4142136,9.75 12.75,10.0857864 12.75,10.5 L12.75,17.25 Z" id="_path-1"/>
    </defs>
    <g id="_Public/ic_public_detail_filled" stroke="none" stroke-width="1" fill="none" fill-rule="evenodd">
        <mask id="_mask-2" fill="white">
            <use xlink:href="#_path-1"/>
        </mask>
        <use id="_Combined-Shape" fill="#000000" xlink:href="#_path-1"/>
    </g>
</svg>