<?xml version="1.0" encoding="UTF-8"?>
<svg xmlns="http://www.w3.org/2000/svg" xmlns:xlink="http://www.w3.org/1999/xlink" width="24" height="24" viewBox="0 0 24 24" version="1.1">
    <title>Public/ic_public_lock_filled</title>
    <defs>
        <path d="M12,2 C14.4576671,2 16.4551704,3.97019583 16.4992559,6.41733369 L16.5,6.5 L16.5,9 C18.1568542,9 19.5,10.3431458 19.5,12 L19.5,18.5 C19.5,20.1568542 18.1568542,21.5 16.5,21.5 L7.5,21.5 C5.84314575,21.5 4.5,20.1568542 4.5,18.5 L4.5,12 C4.5,10.3431458 5.84314575,9 7.5,9 L7.5,6.5 C7.5,4.01471863 9.51471863,2 12,2 Z M12,13.25 C10.8954305,13.25 10,14.1454305 10,15.25 C10,16.3545695 10.8954305,17.25 12,17.25 C13.1045695,17.25 14,16.3545695 14,15.25 C14,14.1454305 13.1045695,13.25 12,13.25 Z M12,4 C10.64269,4 9.53801707,5.0816677 9.50096045,6.43002379 L9.5,9 L14.5,9 L14.5,6.5 C14.5,5.11928813 13.3807119,4 12,4 Z" id="_path-1"/>
    </defs>
    <g id="_Public/ic_public_lock_filled" stroke="none" stroke-width="1" fill="none" fill-rule="evenodd">
        <mask id="_mask-2" fill="white">
            <use xlink:href="#_path-1"/>
        </mask>
        <use id="_形状结合" fill="#9E9E9E" fill-rule="nonzero" xlink:href="#_path-1"/>
    </g>
</svg>