<?xml version="1.0" encoding="UTF-8"?>
<svg xmlns="http://www.w3.org/2000/svg" xmlns:xlink="http://www.w3.org/1999/xlink" width="44" height="44" viewBox="0 0 12 24" version="1.1">
    <title>Public/ic_public_arrow_right_filled</title>
    <defs>
        <path d="M4.45710678,18.363961 C4.27486211,18.5462057 4.03977569,18.6434029 3.80116649,18.6555525 L3.75,18.6568542 C3.49407768,18.6568542 3.23815536,18.5592232 3.04289322,18.363961 C2.664203,17.9852708 2.65272754,17.3784226 3.00846683,16.9859046 L3.04289322,16.9497475 L7.4623106,12.5303301 C7.74474335,12.2478973 7.75483023,11.7962506 7.49257125,11.5017311 L7.4623106,11.4696699 L3.04289322,7.05025253 C2.65236893,6.65972824 2.65236893,6.02656326 3.04289322,5.63603897 C3.23876747,5.44016472 3.49568281,5.3425346 3.75240679,5.34314575 L3.80373089,5.34458136 C4.02596704,5.35646617 4.24499331,5.44214324 4.42094964,5.60161259 L4.45710678,5.63603897 L9.23007755,10.4090097 C10.0930665,11.2719987 10.108477,12.6616054 9.2763091,13.5434021 L9.23007755,13.5909903 L4.45710678,18.363961 Z" id="__path-1"/>
    </defs>
    <g id="__Public/ic_public_arrow_right_filled" stroke="none" stroke-width="1" fill="none" fill-rule="evenodd">
        <mask id="__mask-2" fill="white">
            <use xlink:href="#__path-1"/>
        </mask>
        <use id="__路径" fill="#000000" fill-rule="nonzero" xlink:href="#__path-1"/>
    </g>
</svg>